<svg id="visual" viewBox="0 0 960 300" width="960" height="300" xmlns="http://www.w3.org/2000/svg" xmlns:xlink="http://www.w3.org/1999/xlink" version="1.1"><rect x="0" y="0" width="960" height="300" fill="#e09fd5"></rect><path d="M0 100L17.8 106.3C35.7 112.7 71.3 125.3 106.8 126C142.3 126.7 177.7 115.3 213.2 110.2C248.7 105 284.3 106 320 111.2C355.7 116.3 391.3 125.7 426.8 127.7C462.3 129.7 497.7 124.3 533.2 117.2C568.7 110 604.3 101 640 104.2C675.7 107.3 711.3 122.7 746.8 129.5C782.3 136.3 817.7 134.7 853.2 133.2C888.7 131.7 924.3 130.3 942.2 129.7L960 129L960 0L942.2 0C924.3 0 888.7 0 853.2 0C817.7 0 782.3 0 746.8 0C711.3 0 675.7 0 640 0C604.3 0 568.7 0 533.2 0C497.7 0 462.3 0 426.8 0C391.3 0 355.7 0 320 0C284.3 0 248.7 0 213.2 0C177.7 0 142.3 0 106.8 0C71.3 0 35.7 0 17.8 0L0 0Z" fill="#e09fd5"></path><path d="M0 104L17.8 102.5C35.7 101 71.3 98 106.8 92.2C142.3 86.3 177.7 77.7 213.2 77.2C248.7 76.7 284.3 84.3 320 84.5C355.7 84.7 391.3 77.3 426.8 78.5C462.3 79.7 497.7 89.3 533.2 89.8C568.7 90.3 604.3 81.7 640 80.7C675.7 79.7 711.3 86.3 746.8 85.5C782.3 84.7 817.7 76.3 853.2 73C888.7 69.7 924.3 71.3 942.2 72.2L960 73L960 0L942.2 0C924.3 0 888.7 0 853.2 0C817.7 0 782.3 0 746.8 0C711.3 0 675.7 0 640 0C604.3 0 568.7 0 533.2 0C497.7 0 462.3 0 426.8 0C391.3 0 355.7 0 320 0C284.3 0 248.7 0 213.2 0C177.7 0 142.3 0 106.8 0C71.3 0 35.7 0 17.8 0L0 0Z" fill="#cd9fdb"></path><path d="M0 70L17.8 68C35.7 66 71.3 62 106.8 63C142.3 64 177.7 70 213.2 71.5C248.7 73 284.3 70 320 66C355.7 62 391.3 57 426.8 59C462.3 61 497.7 70 533.2 71.3C568.7 72.7 604.3 66.3 640 65.2C675.7 64 711.3 68 746.8 68.8C782.3 69.7 817.7 67.3 853.2 65.2C888.7 63 924.3 61 942.2 60L960 59L960 0L942.2 0C924.3 0 888.7 0 853.2 0C817.7 0 782.3 0 746.8 0C711.3 0 675.7 0 640 0C604.3 0 568.7 0 533.2 0C497.7 0 462.3 0 426.8 0C391.3 0 355.7 0 320 0C284.3 0 248.7 0 213.2 0C177.7 0 142.3 0 106.8 0C71.3 0 35.7 0 17.8 0L0 0Z" fill="#b79fdf"></path><path d="M0 46L17.8 43.5C35.7 41 71.3 36 106.8 35.3C142.3 34.7 177.7 38.3 213.2 37.5C248.7 36.7 284.3 31.3 320 29.2C355.7 27 391.3 28 426.8 28.3C462.3 28.7 497.7 28.3 533.2 27.8C568.7 27.3 604.3 26.7 640 27.5C675.7 28.3 711.3 30.7 746.8 32.7C782.3 34.7 817.7 36.3 853.2 37.7C888.7 39 924.3 40 942.2 40.5L960 41L960 0L942.2 0C924.3 0 888.7 0 853.2 0C817.7 0 782.3 0 746.8 0C711.3 0 675.7 0 640 0C604.3 0 568.7 0 533.2 0C497.7 0 462.3 0 426.8 0C391.3 0 355.7 0 320 0C284.3 0 248.7 0 213.2 0C177.7 0 142.3 0 106.8 0C71.3 0 35.7 0 17.8 0L0 0Z" fill="#9f9fe0"></path></svg>