<svg id="visual" viewBox="0 0 960 300" width="960" height="300" xmlns="http://www.w3.org/2000/svg" xmlns:xlink="http://www.w3.org/1999/xlink" version="1.1"><rect x="0" y="0" width="960" height="300" fill="#e3d8de"></rect><path d="M0 184L11.5 180.8C23 177.7 46 171.3 68.8 170.8C91.7 170.3 114.3 175.7 137.2 178.3C160 181 183 181 205.8 182C228.7 183 251.3 185 274.2 186.5C297 188 320 189 342.8 181.5C365.7 174 388.3 158 411.2 158.3C434 158.7 457 175.3 480 182.3C503 189.3 526 186.7 548.8 183C571.7 179.3 594.3 174.7 617.2 176.7C640 178.7 663 187.3 685.8 184C708.7 180.7 731.3 165.3 754.2 157.7C777 150 800 150 822.8 156.8C845.7 163.7 868.3 177.3 891.2 182C914 186.7 937 182.3 948.5 180.2L960 178L960 0L948.5 0C937 0 914 0 891.2 0C868.3 0 845.7 0 822.8 0C800 0 777 0 754.2 0C731.3 0 708.7 0 685.8 0C663 0 640 0 617.2 0C594.3 0 571.7 0 548.8 0C526 0 503 0 480 0C457 0 434 0 411.2 0C388.3 0 365.7 0 342.8 0C320 0 297 0 274.2 0C251.3 0 228.7 0 205.8 0C183 0 160 0 137.2 0C114.3 0 91.7 0 68.8 0C46 0 23 0 11.5 0L0 0Z" fill="#e3d8de"></path><path d="M0 129L11.5 130.7C23 132.3 46 135.7 68.8 135.2C91.7 134.7 114.3 130.3 137.2 132.3C160 134.3 183 142.7 205.8 145.3C228.7 148 251.3 145 274.2 140.5C297 136 320 130 342.8 130.3C365.7 130.7 388.3 137.3 411.2 136.2C434 135 457 126 480 123.2C503 120.3 526 123.7 548.8 122.3C571.7 121 594.3 115 617.2 111.2C640 107.3 663 105.7 685.8 106.8C708.7 108 731.3 112 754.2 113.7C777 115.3 800 114.7 822.8 115.7C845.7 116.7 868.3 119.3 891.2 125.8C914 132.3 937 142.7 948.5 147.8L960 153L960 0L948.5 0C937 0 914 0 891.2 0C868.3 0 845.7 0 822.8 0C800 0 777 0 754.2 0C731.3 0 708.7 0 685.8 0C663 0 640 0 617.2 0C594.3 0 571.7 0 548.8 0C526 0 503 0 480 0C457 0 434 0 411.2 0C388.3 0 365.7 0 342.8 0C320 0 297 0 274.2 0C251.3 0 228.7 0 205.8 0C183 0 160 0 137.2 0C114.3 0 91.7 0 68.8 0C46 0 23 0 11.5 0L0 0Z" fill="#d3bad4"></path><path d="M0 101L11.5 97.5C23 94 46 87 68.8 86.7C91.7 86.3 114.3 92.7 137.2 96.8C160 101 183 103 205.8 104.7C228.7 106.3 251.3 107.7 274.2 102.8C297 98 320 87 342.8 83.8C365.7 80.7 388.3 85.3 411.2 88C434 90.7 457 91.3 480 88.2C503 85 526 78 548.8 80.7C571.7 83.3 594.3 95.7 617.2 96C640 96.3 663 84.7 685.8 84.7C708.7 84.7 731.3 96.3 754.2 99.3C777 102.3 800 96.7 822.8 96.8C845.7 97 868.3 103 891.2 101.8C914 100.7 937 92.3 948.5 88.2L960 84L960 0L948.5 0C937 0 914 0 891.2 0C868.3 0 845.7 0 822.8 0C800 0 777 0 754.2 0C731.3 0 708.7 0 685.8 0C663 0 640 0 617.2 0C594.3 0 571.7 0 548.8 0C526 0 503 0 480 0C457 0 434 0 411.2 0C388.3 0 365.7 0 342.8 0C320 0 297 0 274.2 0C251.3 0 228.7 0 205.8 0C183 0 160 0 137.2 0C114.3 0 91.7 0 68.8 0C46 0 23 0 11.5 0L0 0Z" fill="#b4a0d3"></path><path d="M0 50L11.5 47.3C23 44.7 46 39.3 68.8 35.8C91.7 32.3 114.3 30.7 137.2 33.3C160 36 183 43 205.8 47.2C228.7 51.3 251.3 52.7 274.2 51.5C297 50.3 320 46.7 342.8 44.8C365.7 43 388.3 43 411.2 41C434 39 457 35 480 36.3C503 37.7 526 44.3 548.8 49.3C571.7 54.3 594.3 57.7 617.2 58.8C640 60 663 59 685.8 58.5C708.7 58 731.3 58 754.2 58.3C777 58.7 800 59.3 822.8 55.2C845.7 51 868.3 42 891.2 41.5C914 41 937 49 948.5 53L960 57L960 0L948.5 0C937 0 914 0 891.2 0C868.3 0 845.7 0 822.8 0C800 0 777 0 754.2 0C731.3 0 708.7 0 685.8 0C663 0 640 0 617.2 0C594.3 0 571.7 0 548.8 0C526 0 503 0 480 0C457 0 434 0 411.2 0C388.3 0 365.7 0 342.8 0C320 0 297 0 274.2 0C251.3 0 228.7 0 205.8 0C183 0 160 0 137.2 0C114.3 0 91.7 0 68.8 0C46 0 23 0 11.5 0L0 0Z" fill="#808dd6"></path></svg>