<svg id="visual" viewBox="0 0 960 300" width="960" height="300" xmlns="http://www.w3.org/2000/svg" xmlns:xlink="http://www.w3.org/1999/xlink" version="1.1"><rect x="0" y="0" width="960" height="300" fill="#e09fd5"></rect><path d="M0 94L17.8 97C35.7 100 71.3 106 106.8 108C142.3 110 177.7 108 213.2 107.2C248.7 106.3 284.3 106.7 320 109.2C355.7 111.7 391.3 116.3 426.8 116.8C462.3 117.3 497.7 113.7 533.2 114C568.7 114.3 604.3 118.7 640 117.2C675.7 115.7 711.3 108.3 746.8 106.5C782.3 104.7 817.7 108.3 853.2 107.8C888.7 107.3 924.3 102.7 942.2 100.3L960 98L960 0L942.2 0C924.3 0 888.7 0 853.2 0C817.7 0 782.3 0 746.8 0C711.3 0 675.7 0 640 0C604.3 0 568.7 0 533.2 0C497.7 0 462.3 0 426.8 0C391.3 0 355.7 0 320 0C284.3 0 248.7 0 213.2 0C177.7 0 142.3 0 106.8 0C71.3 0 35.7 0 17.8 0L0 0Z" fill="#e09fd5"></path><path d="M0 84L17.8 81.2C35.7 78.3 71.3 72.7 106.8 74.2C142.3 75.7 177.7 84.3 213.2 84.5C248.7 84.7 284.3 76.3 320 78.5C355.7 80.7 391.3 93.3 426.8 93.8C462.3 94.3 497.7 82.7 533.2 80.5C568.7 78.3 604.3 85.7 640 91.2C675.7 96.7 711.3 100.3 746.8 103.2C782.3 106 817.7 108 853.2 108.8C888.7 109.7 924.3 109.3 942.2 109.2L960 109L960 0L942.2 0C924.3 0 888.7 0 853.2 0C817.7 0 782.3 0 746.8 0C711.3 0 675.7 0 640 0C604.3 0 568.7 0 533.2 0C497.7 0 462.3 0 426.8 0C391.3 0 355.7 0 320 0C284.3 0 248.7 0 213.2 0C177.7 0 142.3 0 106.8 0C71.3 0 35.7 0 17.8 0L0 0Z" fill="#c598d8"></path><path d="M0 53L17.8 52.3C35.7 51.7 71.3 50.3 106.8 50.7C142.3 51 177.7 53 213.2 54.2C248.7 55.3 284.3 55.7 320 57.7C355.7 59.7 391.3 63.3 426.8 61.7C462.3 60 497.7 53 533.2 52.5C568.7 52 604.3 58 640 61.3C675.7 64.7 711.3 65.3 746.8 62C782.3 58.7 817.7 51.3 853.2 49.8C888.7 48.3 924.3 52.7 942.2 54.8L960 57L960 0L942.2 0C924.3 0 888.7 0 853.2 0C817.7 0 782.3 0 746.8 0C711.3 0 675.7 0 640 0C604.3 0 568.7 0 533.2 0C497.7 0 462.3 0 426.8 0C391.3 0 355.7 0 320 0C284.3 0 248.7 0 213.2 0C177.7 0 142.3 0 106.8 0C71.3 0 35.7 0 17.8 0L0 0Z" fill="#a692d8"></path><path d="M0 41L17.8 40.3C35.7 39.7 71.3 38.3 106.8 39.3C142.3 40.3 177.7 43.7 213.2 44.8C248.7 46 284.3 45 320 42.7C355.7 40.3 391.3 36.7 426.8 34.5C462.3 32.3 497.7 31.7 533.2 30.7C568.7 29.7 604.3 28.3 640 27.3C675.7 26.3 711.3 25.7 746.8 25C782.3 24.3 817.7 23.7 853.2 27.5C888.7 31.3 924.3 39.7 942.2 43.8L960 48L960 0L942.2 0C924.3 0 888.7 0 853.2 0C817.7 0 782.3 0 746.8 0C711.3 0 675.7 0 640 0C604.3 0 568.7 0 533.2 0C497.7 0 462.3 0 426.8 0C391.3 0 355.7 0 320 0C284.3 0 248.7 0 213.2 0C177.7 0 142.3 0 106.8 0C71.3 0 35.7 0 17.8 0L0 0Z" fill="#808dd6"></path></svg>