<svg id="visual" viewBox="0 0 960 150" width="960" height="150" xmlns="http://www.w3.org/2000/svg" xmlns:xlink="http://www.w3.org/1999/xlink" version="1.1"><rect x="0" y="0" width="960" height="150" fill="#e3d8de"></rect><path d="M0 101L20 105.7C40 110.3 80 119.7 120 117.3C160 115 200 101 240 101.7C280 102.3 320 117.7 360 122.3C400 127 440 121 480 110.5C520 100 560 85 600 76.8C640 68.7 680 67.3 720 74.3C760 81.3 800 96.7 840 102.3C880 108 920 104 940 102L960 100L960 151L940 151C920 151 880 151 840 151C800 151 760 151 720 151C680 151 640 151 600 151C560 151 520 151 480 151C440 151 400 151 360 151C320 151 280 151 240 151C200 151 160 151 120 151C80 151 40 151 20 151L0 151Z" fill="#d5edc9" stroke-linecap="round" stroke-linejoin="miter"></path></svg>