<svg id="visual" viewBox="0 0 960 300" width="960" height="300" xmlns="http://www.w3.org/2000/svg" xmlns:xlink="http://www.w3.org/1999/xlink" version="1.1"><path d="M0 61L32 83.7C64 106.3 128 151.7 192 185.2C256 218.7 320 240.3 384 230.5C448 220.7 512 179.3 576 159.3C640 139.3 704 140.7 768 163.5C832 186.3 896 230.7 928 252.8L960 275L960 301L928 301C896 301 832 301 768 301C704 301 640 301 576 301C512 301 448 301 384 301C320 301 256 301 192 301C128 301 64 301 32 301L0 301Z" fill="#808dd6" stroke-linecap="round" stroke-linejoin="miter"></path></svg>