<svg id="visual" viewBox="0 0 960 300" width="960" height="300" xmlns="http://www.w3.org/2000/svg" xmlns:xlink="http://www.w3.org/1999/xlink" version="1.1"><rect x="0" y="0" width="960" height="300" fill="#e3d8de"></rect><path d="M0 172L26.7 182.8C53.3 193.7 106.7 215.3 160 206.7C213.3 198 266.7 159 320 130C373.3 101 426.7 82 480 83.7C533.3 85.3 586.7 107.7 640 122.7C693.3 137.7 746.7 145.3 800 143.5C853.3 141.7 906.7 130.3 933.3 124.7L960 119L960 301L933.3 301C906.7 301 853.3 301 800 301C746.7 301 693.3 301 640 301C586.7 301 533.3 301 480 301C426.7 301 373.3 301 320 301C266.7 301 213.3 301 160 301C106.7 301 53.3 301 26.7 301L0 301Z" fill="#d5edc9" stroke-linecap="round" stroke-linejoin="miter"></path></svg>