<svg id="visual" viewBox="0 0 960 300" width="960" height="300" xmlns="http://www.w3.org/2000/svg" xmlns:xlink="http://www.w3.org/1999/xlink" version="1.1"><rect x="0" y="0" width="960" height="300" fill="#e3d8de"></rect><path d="M0 202L26.7 194.5C53.3 187 106.7 172 160 153.3C213.3 134.7 266.7 112.3 320 114.8C373.3 117.3 426.7 144.7 480 160.7C533.3 176.7 586.7 181.3 640 180.5C693.3 179.7 746.7 173.3 800 160.5C853.3 147.7 906.7 128.3 933.3 118.7L960 109L960 301L933.3 301C906.7 301 853.3 301 800 301C746.7 301 693.3 301 640 301C586.7 301 533.3 301 480 301C426.7 301 373.3 301 320 301C266.7 301 213.3 301 160 301C106.7 301 53.3 301 26.7 301L0 301Z" fill="#efebdc" stroke-linecap="round" stroke-linejoin="miter"></path></svg>